<?xml version="1.0" encoding="UTF-8"?>
<svg xmlns="http://www.w3.org/2000/svg" version="1.1" viewBox="0 0 288 72">
  <defs>
    <style>
      .cls-1 {
        fill: none;
        stroke: #d5d5d4;
        stroke-miterlimit: 10;
        stroke-width: .65px;
      }

      .cls-2 {
        fill: #8c1515;
      }

      .cls-3 {
        font-family: SourceSans3-Light, 'Source Sans 3';
        font-size: 19.85px;
        font-weight: 300;
      }

      .cls-3, .cls-4 {
        fill: #ababa9;
      }

      .cls-4 {
        font-family: SourceSans3-Medium, 'Source Sans 3';
        font-size: 24px;
        font-weight: 500;
      }
    </style>
  </defs>
  <!-- Generator: Adobe Illustrator 28.6.0, SVG Export Plug-In . SVG Version: 1.2.0 Build 709)  -->
  <g>
    <g id="Layer_2">
      <text class="cls-4" transform="translate(140.62 33.62)"><tspan x="0" y="0">ENGINEERING</tspan></text>
      <text class="cls-3" transform="translate(5.84 58.1)"><tspan x="0" y="0">Materials Science and Engineering</tspan></text>
      <path class="cls-2" d="M33.03,32.3c-.47.57-1.68,1.77-4.22,1.77s-3.75-.86-4.34-2.78c-.24-.76-.24-2.26-.24-3.17,0-2.49.03-4.49.05-6.8v-1.09s-2.05,0-2.05,0v-.61c.83-.32,1.4-.66,1.95-1.08,1.21-.93,1.98-2.1,2.9-3.75h.69v3.5h5.29v1.93h-5.29v8.18c0,2.45.44,3.84,2.75,3.84,1.08,0,1.79-.35,2.24-.59l.26.64h0ZM118.19,31.86c1.06,0,1.78-.17,2.56-.63v-10.43c-.26-.25-1.2-1.04-3.11-1.04-3.03,0-4.5,2.08-4.5,6.35,0,1.79.54,5.76,5.05,5.76h0ZM118.73,10.22c.94,0,2.17-.17,3.66-.44.85-.15,1.42-.3,1.69-.41l.27.16c-.13,1.29-.14,4.18-.14,6.23v12.7c0,1.9.03,3.07.3,3.45.24.35.82.59,1.79.59v.83c-.98,0-2.15.13-3.35.32-.8.13-1.43.26-1.73.42l-.43-.14v-1.31c-.77.57-2.31,1.46-4.35,1.46-4.27,0-7.03-2.96-7.03-7.56,0-1.53.29-2.98.83-4.2,1.31-2.82,4.02-4.44,7.44-4.44,1.25,0,2.37.15,3.04.3v-3.31c0-1.94-.03-2.98-.31-3.39-.22-.32-.54-.48-1.7-.56v-.71h0ZM96.82,18.81c1.06.06,2.2-.07,3.4-.28.93-.16,1.52-.36,1.85-.52l.28.14v1.35c.75-.7,1.93-1.44,3.6-1.44,1.22,0,2.03.34,2.71.96v.49l-1.31,2.4h-.64c-.41-.73-1.19-1.41-2.59-1.41-.66,0-1.21.16-1.7.49v7.85c0,2.05.07,3.02.34,3.42.43.66,1.73.73,2.47.7v.86c-1.07-.06-2.91-.15-4.24-.15-1.51,0-2.99.03-4.23.17v-.79c.87-.04,1.36-.28,1.69-.66.48-.54.51-1.82.51-4.47v-4.45c0-1.93-.01-2.76-.31-3.16-.26-.35-.82-.56-1.82-.57v-.95h0ZM87.53,19.66c-.93,0-1.66.24-2.21.71-1.25,1.05-1.88,2.95-1.88,5.67,0,1.05.2,6.28,4.03,6.28.91,0,1.66-.24,2.2-.7,1.26-1.05,1.89-2.96,1.89-5.68,0-1.04-.2-6.28-4.02-6.28h0ZM87.34,34.12c-4.75,0-7.6-2.97-7.6-7.92,0-3.86,2.08-8.34,7.92-8.34,4.75,0,7.58,2.95,7.58,7.92,0,3.84-2.07,8.35-7.91,8.35h0ZM69.42,33.1c.64.01,1.31-.23,1.69-.66.48-.54.51-1.85.51-4.5v-7.72h-2.03v-.87c.86-.33,1.61-.72,2.03-1.05,0-1.37.05-3.16.23-4.13.6-3.21,2.71-4.85,6.24-4.85,1.56,0,3.04.53,3.93,1.29l.05.33-1.55,2.14h-.38c-.53-1.29-1.32-2.02-2.71-2.02-.48,0-1.15.15-1.57.56-.67.67-.79,1.67-.79,3.66v3.01h3.48v1.93h-3.48v8.64c0,2.05.07,3.06.34,3.46.43.65,1.8.73,2.48.7v.82c-1.14-.07-2.92-.15-4.25-.15-1.93,0-3.19.06-4.23.17v-.76h0ZM50.07,18.87c.79.06,1.98-.02,3.15-.22.98-.17,1.34-.31,2.07-.68l.31.18v1.24c.79-.58,2.37-1.5,4.52-1.5,2.8,0,4.64,1.31,5.16,3.69.15.59.21,2.02.21,2.78v4.55c0,2.57.1,3.29.58,3.75.25.22.82.45,1.51.45v.73c-1-.05-2.78-.15-3.85-.15-1.43,0-3.03.07-3.9.17v-.72c.77-.08,1.3-.31,1.57-.57.45-.45.53-1.35.59-3.29.02-.58.04-1.8.04-2.69,0-1.16,0-2.37-.13-3.56-.23-2.02-1.29-2.95-3.3-2.95-1.41,0-2.27.32-2.92.65v8.18c0,2.57.1,3.29.59,3.75.24.22.85.46,1.5.45v.73c-1.29-.07-2.83-.15-3.83-.15-2.07,0-2.72.04-3.92.17v-.74c.67,0,1.33-.25,1.69-.66.47-.54.5-1.86.5-4.51v-4.45c0-1.93-.04-2.74-.31-3.16-.21-.32-.75-.58-1.82-.57v-.89h0ZM7.99,33.15c0-1.57.01-2.89-.12-4.5h.92c.01.99.29,1.73.72,2.21.66.75,2.19,1.2,3.61,1.2,2.96,0,4.35-1.12,4.35-3.53,0-2.07-1.28-2.92-3.05-4.12l-.27-.19-1.86-1.24c-2.59-1.71-3.92-3.09-3.92-5.83,0-1.34.52-5.73,7.04-5.73,1.65,0,3.81.17,5.12.42-.01.21-.04,1.21-.04,2.06,0,.98,0,1.3.04,2.5h-.79c-.02-1.05-.31-1.73-.77-2.19-.63-.62-2.02-.92-3.49-.92-3.46,0-3.87,1.77-3.87,3.11,0,1.84.94,2.46,2.99,3.82l2.37,1.56c2.01,1.34,3.91,2.61,3.91,5.94,0,5.65-5.26,6.25-7.52,6.25-2.05,0-3.7-.25-5.36-.81h0ZM42.88,25.81c-2.07.62-2.78.96-3.42,1.3-.91.45-1.36,1.36-1.36,2.44,0,.84.3,2.26,2.32,2.26.67,0,1.63-.13,2.45-.72v-5.28h0ZM39.15,33.99c-4.23,0-4.55-3.19-4.55-4.18,0-1.16.3-3.2,2.99-4.18,2.78-1.02,3.37-1.14,5.28-1.74v-.5c0-.92,0-1.15-.19-1.73-.36-1.09-1.42-1.79-2.85-1.79s-2.61.79-3.15,1.93l-.78-.46c.5-1.76,2.27-3.51,5.32-3.51,2.17,0,3.6.61,4.46,1.94.66,1.05.72,2.52.72,4.04,0,1.34-.04,2.83-.07,4.04-.02.83-.04,1.55-.04,1.99,0,1.09.17,1.95,1.09,1.95.38,0,.45-.1.78-.36l.5.58c-.82,1.07-1.73,1.96-3.25,1.96-1.23,0-2.09-.59-2.38-1.58-.69.72-1.94,1.61-3.9,1.61h0Z"/>
      <line class="cls-1" x1="134.03" y1="7.88" x2="134.03" y2="34.67"/>
    </g>
  </g>
</svg>